<svg width="140" height="16" viewBox="0 0 140 16" fill="none" xmlns="http://www.w3.org/2000/svg">
<g clip-path="url(#clip0)">
<path fill-rule="evenodd" clip-rule="evenodd" d="M54.9524 11.1379C54.9524 10.0428 54.1118 9.52168 52.5414 9.52168H49.0092V12.735H52.5414C54.1118 12.735 54.9524 12.252 54.9524 11.1379ZM49.0092 4.26649V7.33006H52.0185C53.4943 7.33006 54.2979 6.81041 54.2979 5.78873C54.2979 4.76705 53.4943 4.26649 52.0185 4.26649H49.0092ZM58 11.4535C58 13.7009 56.2051 15 52.766 15H46V2H52.3922C55.6629 2 57.3456 3.35637 57.3456 5.38065C57.3456 6.68123 56.6719 7.68236 55.6068 8.24018C57.0649 8.70551 58 9.81967 58 11.4535Z" fill="#E9E9E9"/>
<path fill-rule="evenodd" clip-rule="evenodd" d="M69.6894 4.45145H67.1346V8.98295H69.6894C71.6048 8.98295 72.5732 8.12861 72.5732 6.71646C72.5732 5.2867 71.6048 4.45145 69.6894 4.45145ZM72.6313 15L70.0184 11.3786H69.8638H67.1346V15H64V2H69.8638C73.4819 2 75.7476 3.80262 75.7476 6.71646C75.7476 8.66734 74.7226 10.0971 72.9602 10.8223L76 15H72.6313Z" fill="#E9E9E9"/>
<mask id="mask0" mask-type="alpha" maskUnits="userSpaceOnUse" x="-15" y="0" width="170" height="17">
<path d="M-15 16.488H154.554V0H-15V16.488Z" fill="white"/>
</mask>
<g mask="url(#mask0)">
<path fill-rule="evenodd" clip-rule="evenodd" d="M81 15H84V2H81V15Z" fill="#E9E9E9"/>
<path fill-rule="evenodd" clip-rule="evenodd" d="M96.7249 12.5295C99.291 12.5295 100.973 10.9881 100.973 8.5C100.973 6.01186 99.291 4.47053 96.7249 4.47053H93.9909V12.5295H96.7249ZM91 2H96.8723C101.101 2 104 4.56301 104 8.5C104 12.4385 101.101 15 96.8723 15H91V2Z" fill="#E9E9E9"/>
<path fill-rule="evenodd" clip-rule="evenodd" d="M118.913 8.30273H121.75V13.402C120.274 14.4422 118.242 15 116.324 15C112.107 15 109 12.2893 109 8.5C109 4.71212 112.107 2 116.382 2C118.74 2 120.695 2.75502 122 4.17282L120.006 5.89716C119.028 4.92642 117.898 4.47795 116.535 4.47795C113.927 4.47795 112.145 6.11146 112.145 8.5C112.145 10.8516 113.927 12.5221 116.497 12.5221C117.34 12.5221 118.126 12.3787 118.913 11.9828V8.30273Z" fill="#E9E9E9"/>
<path fill-rule="evenodd" clip-rule="evenodd" d="M138 12.5853H131.042V9.57746H135.333L137.017 7.23611H131.042V4.41475H136.141L137.879 2H128V15H136.262L138 12.5853Z" fill="#E9E9E9"/>
<path fill-rule="evenodd" clip-rule="evenodd" d="M9.5511 7.85037H4.78879V4.41355H11.5763L13 2H2V15H4.78879V10.2654H8.1288L9.5511 7.85037Z" fill="#E9E9E9"/>
<path fill-rule="evenodd" clip-rule="evenodd" d="M17 2V15H26V12.5483H19.8414V2H17Z" fill="#E9E9E9"/>
<path fill-rule="evenodd" clip-rule="evenodd" d="M38.0677 2L34.6195 7.77549L31.1713 2H28L32.9974 10.3579V15H35.9836V10.396L41 2H38.0677Z" fill="#E9E9E9"/>
</g>
</g>
<defs>
<clipPath id="clip0">
<rect width="140" height="16" fill="white"/>
</clipPath>
</defs>
</svg>
