<svg width="160" height="40" viewBox="0 0 160 40" fill="none" xmlns="http://www.w3.org/2000/svg">
<path fill-rule="evenodd" clip-rule="evenodd" d="M0 17.3334C0 7.7604 7.7604 0 17.3334 0C26.9063 0 34.6666 7.7604 34.6666 17.3334V40H0V17.3334ZM2.66666 29.3334V37.3334H13.3334V29.3334C13.3334 26.3879 10.9455 24 8 24C5.05449 24 2.66666 26.3879 2.66666 29.3334ZM16 37.3334V29.3334C16 24.915 12.4183 21.3334 8 21.3334C5.95105 21.3334 4.08201 22.1036 2.66666 23.3704V23.3334C2.66666 17.8105 7.14383 13.3334 12.6666 13.3334C18.1895 13.3334 22.6666 17.8105 22.6666 23.3334V37.3334H16ZM32 37.3334H25.3334V23.3334C25.3334 16.3378 19.6623 10.6667 12.6666 10.6667C8.6752 10.6667 5.11494 12.5129 2.79324 15.3979C3.74048 8.2125 9.88925 2.66666 17.3334 2.66666C25.4335 2.66666 32 9.23316 32 17.3334V37.3334Z" fill="#E6E5E5"/>
<path d="M85.4479 28.6344H88.444V11.333H85.4479V28.6344Z" fill="#E6E5E5"/>
<path fill-rule="evenodd" clip-rule="evenodd" d="M79.745 25.7918C79.0269 26.4534 77.8136 26.7475 76.4517 26.7475C74.4461 26.7475 72.8862 26.1104 72.292 24.787C72.0939 24.3949 71.9949 23.9782 71.9454 23.4636H83.5829C83.5829 22.0177 83.3848 20.8905 82.9391 19.8123C81.9239 17.5821 79.5964 16.2344 76.2537 16.2344C72.9605 16.2344 70.5093 17.4841 69.494 19.7632C69.1226 20.5964 68.9245 21.5031 68.9245 22.6305C68.9245 23.7088 69.0979 24.64 69.494 25.4486C70.5093 27.7278 73.01 29.0021 76.427 29.0021C78.6803 29.0021 80.6859 28.4874 82.023 27.2866C82.5998 26.7676 83.0161 26.1633 83.2721 25.4475H80.0706C79.9745 25.5718 79.8655 25.6874 79.745 25.7918ZM76.2537 18.5134C78.1602 18.5134 79.6459 19.1015 80.265 20.4494C80.3887 20.7435 80.4878 21.013 80.5373 21.3561H71.9949C72.0444 21.062 72.1434 20.7925 72.2673 20.5229C72.8863 19.1506 74.2976 18.5134 76.2537 18.5134Z" fill="#E6E5E5"/>
<path d="M103.158 27.2376C101.846 28.3894 99.9391 29.0021 97.6116 29.0021C94.4423 29.0021 91.9909 27.8013 90.951 25.4976C90.5796 24.6645 90.3815 23.7087 90.3815 22.606C90.3815 21.5276 90.5796 20.5474 90.951 19.7387C91.9909 17.4841 94.3928 16.2344 97.6116 16.2344C99.9391 16.2344 101.821 16.8225 103.133 18.0232C104.099 18.8565 104.619 19.9593 104.693 21.2826H101.499C101.425 20.5719 101.128 20.0082 100.682 19.5916C99.9886 18.979 98.8744 18.7095 97.6364 18.7095C95.8289 18.7095 94.467 19.3956 93.8727 20.6455C93.6499 21.2091 93.5261 21.7972 93.5261 22.606C93.5261 23.3901 93.6499 24.0027 93.8727 24.5419C94.467 25.7917 95.8289 26.4779 97.6364 26.4779C98.8744 26.4779 100.013 26.2084 100.682 25.5712C101.177 25.1546 101.474 24.5665 101.499 23.8803H104.743C104.644 25.2281 104.124 26.3554 103.158 27.2376Z" fill="#E6E5E5"/>
<path fill-rule="evenodd" clip-rule="evenodd" d="M113.785 28.9776C117.251 28.9776 119.628 27.6543 120.643 25.4241C121.015 24.591 121.213 23.6597 121.213 22.606C121.213 21.5766 121.015 20.6455 120.643 19.8122C119.628 17.5821 117.251 16.2344 113.785 16.2344C110.343 16.2344 107.966 17.5821 106.926 19.8612C106.554 20.67 106.381 21.6012 106.381 22.606C106.381 23.6352 106.554 24.5419 106.926 25.3751C107.966 27.6298 110.343 28.9776 113.785 28.9776ZM113.785 26.527C111.903 26.527 110.467 25.8162 109.848 24.4929C109.625 23.9537 109.501 23.3411 109.501 22.606C109.501 21.8952 109.625 21.2581 109.848 20.7435C110.467 19.4201 111.903 18.7095 113.785 18.7095C115.666 18.7095 117.127 19.3956 117.746 20.7435C117.969 21.2581 118.068 21.8952 118.068 22.606C118.068 23.3411 117.969 23.9537 117.746 24.4929C117.127 25.8162 115.666 26.527 113.785 26.527Z" fill="#E6E5E5"/>
<path fill-rule="evenodd" clip-rule="evenodd" d="M152.869 26.7475C154.231 26.7475 155.444 26.4534 156.162 25.7918C156.282 25.6874 156.391 25.5718 156.488 25.4475H159.689C159.434 26.1633 159.016 26.7676 158.44 27.2866C157.102 28.4874 155.097 29.0021 152.844 29.0021C149.427 29.0021 146.926 27.7278 145.911 25.4486C145.515 24.64 145.341 23.7088 145.341 22.6305C145.341 21.5031 145.54 20.5964 145.911 19.7632C146.926 17.4841 149.377 16.2344 152.671 16.2344C156.014 16.2344 158.341 17.5821 159.356 19.8123C159.803 20.8905 160 22.0177 160 23.4636H148.362C148.412 23.9782 148.511 24.3949 148.709 24.787C149.304 26.1104 150.864 26.7475 152.869 26.7475ZM156.682 20.4494C156.062 19.1015 154.577 18.5134 152.671 18.5134C150.715 18.5134 149.304 19.1506 148.684 20.5229C148.56 20.7925 148.461 21.062 148.412 21.3561H156.955C156.905 21.013 156.806 20.7435 156.682 20.4494Z" fill="#E6E5E5"/>
<path d="M128.956 16.2598C125.722 16.2598 123.102 18.8829 123.102 22.1186V28.6433H126.162V21.4695C126.162 19.9251 127.412 18.7231 128.956 18.7231C130.499 18.7231 131.75 19.9251 131.75 21.4695V28.6433H134.81V21.4695C134.81 19.9251 136.061 18.7231 137.605 18.7231C139.147 18.7231 140.399 19.9251 140.399 21.4695V28.6433H143.459V22.1186C143.459 18.8829 140.837 16.2598 137.605 16.2598C135.892 16.2598 134.351 16.9959 133.28 18.1691C132.21 16.9959 130.669 16.2598 128.956 16.2598Z" fill="#E6E5E5"/>
<path d="M62.0944 25.2089L65.2535 16.5889H68.4615L63.6128 28.6127H60.5761L57.564 20.1887L54.552 28.6127H51.5154L46.6666 16.5889H49.8746L53.0336 25.2334L56.0458 16.5889H59.0579L62.0944 25.2089Z" fill="#E6E5E5"/>
</svg>
