<svg width="63" height="21" viewBox="0 0 63 21" fill="none" xmlns="http://www.w3.org/2000/svg">
<path d="M7.92225 5.26953C3.54375 5.26953 0 8.77733 0 13.1114C0 17.4455 3.54375 20.9533 7.92225 20.9533C12.3007 20.9533 15.8445 17.4455 15.8445 13.1114C15.8445 8.77733 12.3007 5.26953 7.92225 5.26953ZM7.92225 17.0401C5.733 17.0401 3.95325 15.2784 3.95325 13.1114C3.95325 10.9444 5.733 9.18267 7.92225 9.18267C10.1115 9.18267 11.8912 10.9444 11.8912 13.1114C11.8912 15.2784 10.1115 17.0401 7.92225 17.0401Z" fill="#E9E9E9"/>
<path d="M21.8455 15.7461C21.8455 15.1225 22.6015 14.8263 23.0425 15.2628C25.027 17.2584 28.303 20.6882 28.3187 20.7038C28.366 20.7506 28.4132 20.8285 28.6022 20.8909C28.681 20.922 28.807 20.922 28.9487 20.922H32.524C33.1697 20.922 33.3587 20.1893 33.0595 19.8151L27.1375 13.8129L26.8225 13.5011C26.1452 12.706 26.224 12.3942 26.9957 11.5835L31.6892 6.39198C31.9885 6.01782 31.7995 5.30067 31.138 5.30067H27.8935C27.7675 5.30067 27.673 5.30067 27.5785 5.33185C27.3895 5.39421 27.3107 5.45657 27.2635 5.51893C27.2477 5.53452 24.649 8.30958 23.0425 10.0089C22.6015 10.4766 21.814 10.1648 21.814 9.52561V0.623608C21.814 0.171492 21.436 0 21.1367 0H18.4907C18.034 0 17.8135 0.296214 17.8135 0.561247V20.2984C17.8135 20.7506 18.1915 20.8753 18.5065 20.8753H21.1525C21.562 20.8753 21.8297 20.5791 21.8297 20.2829V20.0802V15.7461H21.8455Z" fill="#E9E9E9"/>
<path d="M43.4548 20.2049L43.1713 17.5857C43.1398 17.2272 42.7933 16.9777 42.431 17.0401C42.2263 17.0713 42.0215 17.0869 41.8168 17.0869C39.7063 17.0869 37.9895 15.4499 37.8635 13.3764C37.8635 13.314 37.8635 13.2361 37.8635 13.1581V9.94655C37.8635 9.52561 38.1785 9.18263 38.6038 9.18263H42.1475C42.3995 9.18263 42.7775 8.96437 42.7775 8.51225V6.03341C42.7775 5.55011 42.4625 5.30067 42.179 5.30067H38.6038C38.1943 5.30067 37.8635 5.00445 37.8478 4.59911V0.623608C37.8478 0.374165 37.6588 0 37.1705 0H34.5403C34.2095 0 33.8945 0.202673 33.8945 0.608018C33.8945 0.608018 33.8945 13.314 33.8945 13.3764C34.0048 17.6169 37.517 21 41.8168 21C42.179 21 42.5255 20.9688 42.872 20.9221C43.25 20.8753 43.502 20.5635 43.4548 20.2049Z" fill="#E9E9E9"/>
<path d="M62.5429 16.9154C60.3064 16.9154 59.9599 16.1203 59.9599 13.1425C59.9599 13.127 59.9599 13.127 59.9599 13.1114V5.95547C59.9599 5.70602 59.7709 5.28509 59.2669 5.28509H56.6209C56.2901 5.28509 55.9279 5.55012 55.9279 5.95547V6.28286C54.7781 5.62807 53.4394 5.25391 52.0219 5.25391C47.6434 5.25391 44.0996 8.7617 44.0996 13.0958C44.0996 17.4298 47.6434 20.9376 52.0219 20.9376C53.9906 20.9376 55.7861 20.2205 57.1721 19.0512C57.9124 20.1737 59.1094 20.9221 60.9836 20.9376C61.2986 20.9376 62.9996 21 62.9996 20.2049V17.4143C62.9996 17.1804 62.8106 16.9154 62.5429 16.9154ZM52.0376 17.0401C49.8484 17.0401 48.0686 15.2784 48.0686 13.1114C48.0686 10.9443 49.8484 9.18264 52.0376 9.18264C54.2269 9.18264 56.0066 10.9443 56.0066 13.1114C55.9909 15.2784 54.2111 17.0401 52.0376 17.0401Z" fill="#E9E9E9"/>
</svg>
