<svg width="120" height="18" viewBox="0 0 120 18" fill="none" xmlns="http://www.w3.org/2000/svg">
<path d="M50.3281 10.6946H57.6876L53.7961 4.43808L46.654 15.7501H43.4035L52.0907 2.16196C52.4684 1.61294 53.0979 1.28125 53.7961 1.28125C54.4714 1.28125 55.1009 1.6015 55.4672 2.13908L64.1887 15.7501H60.9382L59.4045 13.2223H51.9533L50.3281 10.6946ZM84.0927 13.2223V1.4185H81.3343V14.3776C81.3343 14.7321 81.4717 15.0753 81.7349 15.3383C81.9981 15.6014 82.3529 15.7501 82.7421 15.7501H95.3209L96.9461 13.2223H84.0927ZM38.459 11.1063C41.1373 11.1063 43.3119 8.9446 43.3119 6.26814C43.3119 3.5917 41.1373 1.4185 38.459 1.4185H26.3918V15.7501H29.1491V3.94626H38.2758C39.5578 3.94626 40.5879 4.9871 40.5879 6.26814C40.5879 7.54918 39.5578 8.59002 38.2758 8.59002L30.4997 8.57857L38.7336 15.7501H42.7397L37.2 11.1063H38.459ZM9.418 15.7501C5.45891 15.7501 2.24609 12.5475 2.24609 8.59002C2.24609 4.63253 5.45891 1.4185 9.418 1.4185H17.7538C21.714 1.4185 24.9245 4.63253 24.9245 8.59002C24.9245 12.5475 21.714 15.7501 17.7538 15.7501H9.418ZM17.5684 13.2223C20.1334 13.2223 22.2108 11.1521 22.2108 8.59002C22.2108 6.02795 20.1334 3.94626 17.5684 3.94626H9.60223C7.03841 3.94626 4.95983 6.02795 4.95983 8.59002C4.95983 11.1521 7.03841 13.2223 9.60223 13.2223H17.5684ZM69.9459 15.7501C65.9857 15.7501 62.7695 12.5475 62.7695 8.59002C62.7695 4.63253 65.9857 1.4185 69.9459 1.4185H79.8463L78.2325 3.94626H70.129C67.5652 3.94626 65.4821 6.02795 65.4821 8.59002C65.4821 11.1521 67.5652 13.2223 70.129 13.2223H80.0752L78.45 15.7501H69.9459ZM103.676 13.2223C101.559 13.2223 99.7617 11.804 99.2123 9.84817H111.001L112.627 7.32041H99.2123C99.7617 5.37598 101.559 3.94626 103.676 3.94626H111.768L113.405 1.4185H103.493C99.5328 1.4185 96.3166 4.63253 96.3166 8.59002C96.3166 12.5475 99.5328 15.7501 103.493 15.7501H111.997L113.622 13.2223H103.676Z" fill="#E9E9E9"/>
<path d="M114.881 2.94016C114.881 2.24245 115.442 1.682 116.14 1.682C116.85 1.682 117.411 2.24245 117.411 2.94016C117.411 3.6493 116.85 4.20976 116.14 4.20976C115.442 4.20976 114.881 3.6493 114.881 2.94016ZM116.14 4.56433C117.033 4.56433 117.754 3.84375 117.754 2.9516C117.754 2.05945 117.033 1.33887 116.14 1.33887C115.259 1.33887 114.538 2.05945 114.538 2.9516C114.538 3.84375 115.259 4.56433 116.14 4.56433ZM115.992 1.99083C116.243 1.99083 116.346 2.00225 116.461 2.048C116.781 2.15095 116.816 2.4369 116.816 2.55128C116.816 2.57415 116.816 2.63134 116.793 2.69996C116.781 2.76859 116.736 2.90585 116.575 3.00879C116.553 3.02023 116.541 3.03166 116.495 3.05453L116.907 3.798H116.507L116.14 3.11172H115.889V3.798H115.534V1.99083H115.992ZM116.118 2.81435C116.232 2.80291 116.346 2.80291 116.415 2.69996C116.449 2.65421 116.461 2.60846 116.461 2.53983C116.461 2.44833 116.404 2.36828 116.324 2.32252C116.243 2.28821 116.163 2.28821 115.992 2.28821H115.889V2.81435H116.118Z" fill="#E9E9E9"/>
</svg>
