<svg width="16" height="14" viewBox="0 0 16 14" fill="none" xmlns="http://www.w3.org/2000/svg">
<path d="M15.9693 2.05453C15.3793 2.31386 14.7493 2.49053 14.086 2.57119C14.762 2.16386 15.282 1.52186 15.528 0.755859C14.894 1.12586 14.1913 1.39519 13.4433 1.54519C12.846 0.905859 11.9947 0.505859 11.0493 0.505859C9.238 0.505859 7.76933 1.97453 7.76933 3.78386C7.76933 4.04386 7.79933 4.29386 7.854 4.53319C5.12733 4.40453 2.71067 3.09519 1.09333 1.11586C0.808667 1.59719 0.649333 2.15653 0.649333 2.76586C0.649333 3.90586 1.22933 4.90786 2.108 5.49653C1.57 5.47919 1.064 5.33119 0.622667 5.08586V5.12653C0.622667 6.71653 1.75133 8.04253 3.25333 8.34453C2.978 8.41853 2.68733 8.45853 2.38933 8.45853C2.18 8.45853 1.97933 8.43853 1.77867 8.40119C2.19933 9.7032 3.40867 10.6525 4.848 10.6792C3.728 11.5585 2.30867 12.0825 0.78 12.0825C0.52 12.0825 0.260667 12.0672 0 12.0379C1.45933 12.9672 3.17867 13.5105 5.038 13.5105C11.074 13.5105 14.3707 8.51319 14.3707 4.18653C14.3707 4.04719 14.3707 3.90653 14.3607 3.76653C15.0013 3.30719 15.5607 2.72653 16.0007 2.06786L15.9693 2.05453Z" fill="#A0A0A0"/>
</svg>
