<svg width="16" height="12" viewBox="0 0 16 12" fill="none" xmlns="http://www.w3.org/2000/svg">
<path d="M15.6661 2.14269C15.5734 1.81036 15.3965 1.50757 15.1525 1.26361C14.9086 1.01964 14.6058 0.842735 14.2735 0.750025C13.0268 0.416025 8.0068 0.416025 8.0068 0.416025C8.0068 0.416025 3.0008 0.409355 1.7408 0.750025C1.40851 0.842895 1.10581 1.01994 0.861958 1.26403C0.618107 1.50811 0.441357 1.81098 0.348797 2.14336C0.11227 3.4199 -0.00445951 4.71576 0.00013024 6.01403C-0.00358878 7.30762 0.113137 8.59869 0.348797 9.8707C0.441457 10.2029 0.618251 10.5057 0.862095 10.7496C1.10594 10.9936 1.40859 11.1705 1.7408 11.2634C2.9868 11.598 8.00746 11.598 8.00746 11.598C8.00746 11.598 13.0128 11.598 14.2735 11.2634C14.6059 11.1706 14.9087 10.9936 15.1527 10.7495C15.3967 10.5054 15.5735 10.2025 15.6661 9.87C15.8966 8.5978 16.0082 7.30692 15.9995 6.01403C16.0092 4.71579 15.8976 3.41948 15.6661 2.14202V2.14269ZM6.40546 8.4094V3.61202L10.5828 6.01469L6.40546 8.4094Z" fill="#A0A0A0"/>
</svg>
